<svg xmlns="http://www.w3.org/2000/svg" xmlns:xlink="http://www.w3.org/1999/xlink" width="800" zoomAndPan="magnify" viewBox="0 0 600 675.000002" height="900" preserveAspectRatio="xMidYMid meet" version="1.0"><defs><clipPath id="ff9557d6b5"><path d="M 100 161 L 599.554688 161 L 599.554688 674 L 100 674 Z M 100 161 " clip-rule="nonzero"/></clipPath></defs><path fill="#0f1f3c" d="M 86.46875 69.496094 L 86.46875 585.585938 L 387.523438 585.585938 L 516.546875 444.832031 L 516.546875 69.496094 Z M 387.527344 521.933594 L 387.527344 435.058594 L 467.164062 435.058594 Z M 473.535156 392.050781 L 344.515625 392.050781 L 344.515625 542.578125 L 129.472656 542.578125 L 129.472656 112.5 L 473.535156 112.5 Z M 473.535156 392.050781 " fill-opacity="1" fill-rule="nonzero"/><path fill="#0f1f3c" d="M 172.484375 155.507812 L 430.535156 155.507812 L 430.535156 198.515625 L 172.484375 198.515625 Z M 172.484375 241.527344 L 387.523438 241.527344 L 387.523438 284.53125 L 172.484375 284.53125 Z M 172.484375 327.539062 L 301.507812 327.539062 L 301.507812 370.542969 L 172.484375 370.542969 Z M 172.484375 327.539062 " fill-opacity="1" fill-rule="nonzero"/><path stroke-linecap="butt" transform="matrix(0.748891, 0, 0, 0.748891, 277.756828, 541.546779)" fill="none" stroke-linejoin="miter" d="M 0.00131513 30.498369 L 148.350981 30.498369 " stroke="#ffffff" stroke-width="61" stroke-opacity="1" stroke-miterlimit="4"/><path stroke-linecap="butt" transform="matrix(0.00000000130706, 0.748891, -0.748891, 0.00000000130706, 390.34962, 389.753734)" fill="none" stroke-linejoin="miter" d="M 0.000229481 31.502346 L 233.194158 31.502346 " stroke="#ffffff" stroke-width="63" stroke-opacity="1" stroke-miterlimit="4"/><g clip-path="url(#ff9557d6b5)"><path stroke-linecap="butt" transform="matrix(-0.503527, 0.554344, -0.554344, -0.503527, 520.01424, 444.414699)" fill="none" stroke-linejoin="miter" d="M 0.0025312 31.500616 L 268.562238 31.499659 " stroke="#ffffff" stroke-width="63" stroke-opacity="1" stroke-miterlimit="4"/></g><path stroke-linecap="butt" transform="matrix(0.748891, -0.000000000000000371, 0.000000000000000371, 0.748891, 349.144493, 389.751453)" fill="none" stroke-linejoin="miter" d="M 0.0000516905 31.002259 L 220.399011 31.002259 " stroke="#ffffff" stroke-width="62" stroke-opacity="1" stroke-miterlimit="4"/><path stroke-linecap="butt" transform="matrix(0, 0.748891, -0.748891, 0, 517.680697, 389.75315)" fill="none" stroke-linejoin="miter" d="M 0.00101034 29.498109 L 70.334223 29.498109 " stroke="#ffffff" stroke-width="59" stroke-opacity="1" stroke-miterlimit="4"/><path fill="#080341" d="M 398.601562 516.367188 L 398.601562 616.132812 L 427.105469 616.132812 L 427.105469 516.367188 L 526.871094 516.367188 L 526.871094 487.863281 L 427.105469 487.863281 L 427.105469 388.097656 L 398.601562 388.097656 L 398.601562 487.863281 L 298.835938 487.863281 L 298.835938 516.367188 Z M 398.601562 516.367188 " fill-opacity="1" fill-rule="evenodd"/></svg>