<?xml version="1.0" encoding="utf-8"?><!-- Uploaded to: SVG Repo, www.svgrepo.com, Generator: SVG Repo Mixer Tools -->
<svg width="800px" height="800px" viewBox="0 0 24 24" fill="none" xmlns="http://www.w3.org/2000/svg">
<path fill-rule="evenodd" clip-rule="evenodd" d="M19.5 12C19.5 16.1421 16.1421 19.5 12 19.5C7.85786 19.5 4.5 16.1421 4.5 12C4.5 7.85786 7.85786 4.5 12 4.5C16.1421 4.5 19.5 7.85786 19.5 12ZM21 12C21 16.9706 16.9706 21 12 21C7.02944 21 3 16.9706 3 12C3 7.02944 7.02944 3 12 3C16.9706 3 21 7.02944 21 12ZM9.375 10.5C9.99632 10.5 10.5 9.99632 10.5 9.375C10.5 8.75368 9.99632 8.25 9.375 8.25C8.75368 8.25 8.25 8.75368 8.25 9.375C8.25 9.99632 8.75368 10.5 9.375 10.5ZM15.75 9.375C15.75 9.99632 15.2463 10.5 14.625 10.5C14.0037 10.5 13.5 9.99632 13.5 9.375C13.5 8.75368 14.0037 8.25 14.625 8.25C15.2463 8.25 15.75 8.75368 15.75 9.375ZM12 15C10.1783 15 9 13.8451 9 12.75H7.5C7.5 14.9686 9.67954 16.5 12 16.5C14.3205 16.5 16.5 14.9686 16.5 12.75H15C15 13.8451 13.8217 15 12 15Z" fill="#080341"/>
</svg>