<svg xmlns="http://www.w3.org/2000/svg" xmlns:xlink="http://www.w3.org/1999/xlink" width="800" zoomAndPan="magnify" viewBox="0 0 600 675.000002" height="900" preserveAspectRatio="xMidYMid meet" version="1.0"><defs><clipPath id="a5a0d39b22"><path d="M 100 161 L 599.554688 161 L 599.554688 674 L 100 674 Z M 100 161 " clip-rule="nonzero"/></clipPath></defs><path fill="#0f1f3c" d="M 86.46875 69.496094 L 86.46875 585.585938 L 387.523438 585.585938 L 516.546875 444.832031 L 516.546875 69.496094 Z M 387.527344 521.933594 L 387.527344 435.058594 L 467.164062 435.058594 Z M 473.535156 392.050781 L 344.515625 392.050781 L 344.515625 542.578125 L 129.472656 542.578125 L 129.472656 112.5 L 473.535156 112.5 Z M 473.535156 392.050781 " fill-opacity="1" fill-rule="nonzero"/><path fill="#0f1f3c" d="M 172.484375 155.507812 L 430.535156 155.507812 L 430.535156 198.515625 L 172.484375 198.515625 Z M 172.484375 241.527344 L 387.523438 241.527344 L 387.523438 284.53125 L 172.484375 284.53125 Z M 172.484375 327.539062 L 301.507812 327.539062 L 301.507812 370.542969 L 172.484375 370.542969 Z M 172.484375 327.539062 " fill-opacity="1" fill-rule="nonzero"/><path stroke-linecap="butt" transform="matrix(0.748891, 0, 0, 0.748891, 277.756828, 541.546779)" fill="none" stroke-linejoin="miter" d="M 0.00131513 30.498369 L 148.350981 30.498369 " stroke="#ffffff" stroke-width="61" stroke-opacity="1" stroke-miterlimit="4"/><path stroke-linecap="butt" transform="matrix(0.00000000130706, 0.748891, -0.748891, 0.00000000130706, 390.34962, 389.753734)" fill="none" stroke-linejoin="miter" d="M 0.000229481 31.502346 L 233.194158 31.502346 " stroke="#ffffff" stroke-width="63" stroke-opacity="1" stroke-miterlimit="4"/><g clip-path="url(#a5a0d39b22)"><path stroke-linecap="butt" transform="matrix(-0.503527, 0.554344, -0.554344, -0.503527, 520.01424, 444.414699)" fill="none" stroke-linejoin="miter" d="M 0.0025312 31.500616 L 268.562238 31.499659 " stroke="#ffffff" stroke-width="63" stroke-opacity="1" stroke-miterlimit="4"/></g><path stroke-linecap="butt" transform="matrix(0.748891, -0.000000000000000371, 0.000000000000000371, 0.748891, 349.144493, 389.751453)" fill="none" stroke-linejoin="miter" d="M 0.0000516905 31.002259 L 220.399011 31.002259 " stroke="#ffffff" stroke-width="62" stroke-opacity="1" stroke-miterlimit="4"/><path stroke-linecap="butt" transform="matrix(0, 0.748891, -0.748891, 0, 517.680697, 389.75315)" fill="none" stroke-linejoin="miter" d="M 0.00101034 29.498109 L 70.334223 29.498109 " stroke="#ffffff" stroke-width="59" stroke-opacity="1" stroke-miterlimit="4"/><path fill="#0f1f3c" d="M 393.445312 385.734375 C 308.164062 385.734375 271.617188 483.199219 271.617188 483.199219 C 271.617188 483.199219 308.164062 580.664062 393.445312 580.664062 C 478.730469 580.664062 515.277344 483.199219 515.277344 483.199219 C 515.277344 483.199219 478.730469 385.734375 393.445312 385.734375 Z M 393.445312 556.296875 C 339.617188 556.296875 308.585938 504.15625 298.292969 483.203125 C 308.613281 462.195312 339.640625 410.097656 393.445312 410.097656 C 447.277344 410.097656 478.308594 462.242188 488.601562 483.195312 C 478.28125 504.199219 447.253906 556.296875 393.445312 556.296875 Z M 393.445312 440.558594 C 369.898438 440.558594 350.804688 459.648438 350.804688 483.199219 C 350.804688 506.746094 369.898438 525.839844 393.445312 525.839844 C 416.996094 525.839844 436.085938 506.746094 436.085938 483.199219 C 436.085938 459.648438 416.996094 440.558594 393.445312 440.558594 Z M 393.445312 501.472656 C 383.371094 501.472656 375.171875 493.273438 375.171875 483.199219 C 375.171875 473.121094 383.371094 464.921875 393.445312 464.921875 C 403.523438 464.921875 411.722656 473.121094 411.722656 483.199219 C 411.722656 493.273438 403.523438 501.472656 393.445312 501.472656 Z M 393.445312 501.472656 " fill-opacity="1" fill-rule="evenodd"/></svg>