<svg xmlns="http://www.w3.org/2000/svg" xmlns:xlink="http://www.w3.org/1999/xlink" width="800" zoomAndPan="magnify" viewBox="0 0 600 675.000002" height="900" preserveAspectRatio="xMidYMid meet" version="1.0"><path fill="#080341" d="M 529.386719 125.890625 C 500.832031 97.335938 454.539062 97.335938 425.984375 125.890625 L 192.355469 359.519531 C 189.230469 362.644531 187.015625 366.558594 185.941406 370.84375 L 161.570312 468.332031 C 159.492188 476.636719 161.925781 485.425781 167.980469 491.476562 C 174.035156 497.53125 182.820312 499.964844 191.125 497.890625 L 288.617188 473.515625 C 292.902344 472.445312 296.816406 470.230469 299.9375 467.105469 L 491.226562 275.816406 L 533.570312 233.476562 C 562.125 204.921875 562.125 158.625 533.570312 130.070312 Z M 460.453125 160.355469 C 469.96875 150.839844 485.402344 150.839844 494.921875 160.355469 L 499.101562 164.539062 C 508.621094 174.058594 508.621094 189.488281 499.101562 199.007812 L 474.328125 223.78125 L 436.417969 184.390625 Z M 401.945312 218.867188 L 439.851562 258.257812 L 270.246094 427.863281 L 218.710938 440.746094 L 231.59375 389.214844 Z M 112.097656 254.890625 C 112.097656 241.429688 123.007812 230.519531 136.46875 230.519531 L 258.332031 230.519531 C 271.792969 230.519531 282.707031 219.605469 282.707031 206.144531 C 282.707031 192.683594 271.792969 181.773438 258.332031 181.773438 L 136.46875 181.773438 C 96.089844 181.773438 63.351562 214.507812 63.351562 254.890625 L 63.351562 522.988281 C 63.351562 563.371094 96.089844 596.105469 136.46875 596.105469 L 404.566406 596.105469 C 444.953125 596.105469 477.6875 563.371094 477.6875 522.988281 L 477.6875 401.125 C 477.6875 387.667969 466.773438 376.753906 453.3125 376.753906 C 439.851562 376.753906 428.941406 387.667969 428.941406 401.125 L 428.941406 522.988281 C 428.941406 536.449219 418.03125 547.359375 404.566406 547.359375 L 136.46875 547.359375 C 123.007812 547.359375 112.097656 536.449219 112.097656 522.988281 Z M 112.097656 254.890625 " fill-opacity="1" fill-rule="evenodd"/></svg>